<?xml version="1.0" standalone="no"?>
<!DOCTYPE svg PUBLIC "-//W3C//DTD SVG 20010904//EN"
 "http://www.w3.org/TR/2001/REC-SVG-20010904/DTD/svg10.dtd">
<svg version="1.0" xmlns="http://www.w3.org/2000/svg"
 width="792.000000pt" height="792.000000pt" viewBox="0 0 792.000000 792.000000"
 preserveAspectRatio="xMidYMid meet">
<metadata>
Created by potrace 1.11, written by Peter Selinger 2001-2013
</metadata>
<g transform="translate(0.000000,792.000000) scale(0.100000,-0.100000)"
fill="#000000" stroke="none">
<path d="M4260 7325 c-7 -8 -20 -15 -29 -15 -14 -1 -14 -2 2 -14 27 -21 7 -24
-113 -18 -97 5 -104 4 -91 -11 12 -15 11 -17 -9 -17 -16 0 -20 -4 -16 -15 4
-12 -4 -15 -38 -15 -29 0 -52 -7 -70 -21 -21 -16 -34 -20 -59 -14 -18 4 -49 6
-69 6 -21 0 -38 4 -38 9 0 6 -5 10 -11 10 -6 0 -9 -7 -5 -15 3 -9 0 -15 -8
-15 -18 0 -29 30 -13 34 6 2 39 8 71 15 76 14 103 36 34 27 -27 -3 -48 -2 -48
4 0 12 -70 1 -98 -17 -29 -18 -135 -52 -187 -59 -22 -4 -48 -10 -57 -15 -23
-12 -68 -11 -68 1 0 6 11 11 25 11 14 1 30 3 35 4 6 1 17 3 25 4 8 0 15 8 15
17 0 12 -6 15 -22 11 -12 -4 -28 -1 -35 5 -20 16 -91 -10 -111 -40 -10 -14
-27 -35 -39 -49 -13 -13 -23 -26 -23 -28 0 -10 37 -4 48 7 8 8 12 8 12 1 0 -5
-22 -22 -49 -35 -26 -14 -74 -43 -106 -64 -32 -22 -70 -45 -84 -53 -14 -8 -27
-18 -29 -23 -2 -4 -10 -8 -18 -8 -9 0 -11 6 -7 18 6 15 5 15 -10 3 -9 -7 -24
-11 -32 -7 -10 3 -15 -1 -15 -12 0 -23 -19 -42 -35 -36 -6 3 -18 -2 -25 -11
-7 -8 -19 -15 -27 -15 -25 0 -73 -53 -79 -87 -7 -37 -45 -83 -69 -83 -8 0 -15
-9 -15 -19 0 -10 -7 -21 -15 -25 -8 -3 -15 -11 -15 -19 0 -7 -25 -45 -55 -83
-31 -38 -53 -75 -50 -83 3 -7 -15 -48 -40 -91 -25 -42 -45 -81 -45 -87 0 -6
-7 -16 -15 -23 -12 -10 -15 -10 -15 4 0 34 -29 6 -55 -53 -14 -31 -14 -39 1
-84 10 -31 13 -52 7 -56 -15 -9 -42 -72 -46 -106 -6 -45 -39 -145 -50 -145 -4
0 -6 -8 -2 -19 3 -10 1 -58 -5 -107 -7 -49 -11 -132 -11 -184 0 -99 -12 -147
-24 -98 -4 15 -4 36 0 47 7 22 -1 26 -23 12 -16 -10 -11 -140 9 -239 11 -54
16 -62 33 -60 17 2 20 -2 18 -22 -1 -13 -7 -27 -13 -31 -7 -4 -8 -19 -4 -39 5
-23 4 -30 -4 -26 -19 12 -12 -37 11 -74 12 -19 22 -39 23 -45 1 -5 4 -17 7
-25 16 -42 57 -169 63 -197 3 -17 24 -67 45 -110 27 -52 37 -85 33 -101 -8
-35 26 -105 49 -99 12 3 22 -4 32 -21 7 -15 24 -47 37 -72 14 -25 37 -58 52
-74 15 -16 27 -35 27 -42 0 -8 6 -14 14 -14 17 0 38 -25 40 -48 1 -9 14 -36
29 -59 15 -24 27 -47 27 -52 0 -17 149 -136 170 -136 11 0 25 -8 32 -17 22
-29 162 -138 177 -138 8 0 50 -22 95 -48 210 -123 452 -197 736 -222 259 -23
534 22 626 102 54 48 116 148 119 192 2 23 9 42 19 48 17 10 22 38 6 38 -5 0
-10 7 -10 15 0 27 -50 64 -94 70 -33 5 -47 13 -60 37 -14 23 -23 28 -41 24
-14 -4 -27 -1 -31 6 -10 17 33 48 67 48 30 0 36 13 19 40 -7 12 -16 11 -62 -7
-29 -12 -63 -24 -75 -28 -36 -10 -48 -32 -29 -53 9 -10 16 -22 16 -27 0 -4
-50 -5 -112 -2 -93 6 -114 10 -130 26 -24 26 -23 31 6 31 14 0 27 4 30 9 11
17 -28 36 -88 42 -89 10 -136 29 -136 56 0 33 11 53 29 53 10 0 17 8 17 20 0
23 -8 24 -53 8 -27 -10 -33 -17 -33 -40 0 -21 -8 -33 -32 -48 -18 -10 -39 -24
-46 -31 -15 -13 -123 -6 -168 11 -14 6 -38 10 -53 10 -16 0 -34 6 -40 14 -7 8
-27 17 -45 20 -23 4 -43 18 -61 42 -18 24 -33 34 -45 31 -18 -5 -84 35 -186
113 -63 47 -384 362 -384 377 0 4 -9 25 -20 45 -11 21 -17 44 -14 52 4 11 -2
19 -19 25 -18 7 -24 15 -20 29 2 11 0 23 -6 26 -6 4 -11 16 -11 26 0 11 -9 24
-21 30 -15 9 -18 15 -9 25 12 15 7 19 -32 29 -37 9 -57 58 -63 155 -4 64 -7
75 -21 73 -15 -3 -16 14 -13 182 3 130 8 189 17 198 9 9 12 9 12 -5 0 -9 5
-17 10 -17 6 0 10 7 10 15 0 9 6 12 15 9 17 -7 36 32 40 84 3 25 -1 32 -14 32
-30 0 -43 21 -24 42 12 14 13 21 4 32 -8 10 -9 16 -1 21 5 3 10 14 10 24 0 10
7 24 15 31 13 11 15 8 15 -19 0 -22 5 -31 16 -31 12 0 14 7 9 33 -4 17 -14 37
-22 44 -12 9 -12 16 -2 35 12 23 12 23 -10 4 -30 -27 -27 -3 8 61 25 45 27 53
13 66 -15 16 -9 37 11 37 7 0 36 25 66 55 53 53 54 55 37 74 -17 19 -16 21 20
61 21 23 40 37 42 31 8 -24 32 -10 32 19 0 24 10 37 55 70 30 22 63 40 74 40
11 0 46 22 79 49 32 27 83 63 113 81 30 17 81 49 114 71 33 21 67 42 75 45 8
3 22 9 30 13 8 4 40 14 70 21 30 7 66 17 80 22 67 27 112 36 192 42 70 6 93 4
118 -9 17 -9 30 -21 28 -27 -2 -6 -28 -20 -58 -32 -64 -26 -72 -46 -33 -82 21
-19 34 -24 53 -19 14 4 51 9 83 12 66 6 79 28 22 39 -43 8 -45 19 -5 33 35 12
39 31 10 49 -24 15 -25 25 -4 46 15 15 29 15 87 -1 17 -4 17 -6 2 -23 -15 -16
-15 -18 0 -24 37 -14 92 -6 106 15 13 19 18 20 64 10 120 -25 184 -42 262 -67
71 -23 82 -30 80 -48 -2 -18 3 -21 30 -18 27 3 35 -1 45 -22 11 -27 53 -37 60
-15 2 6 16 -1 31 -15 16 -14 35 -26 43 -26 10 0 13 -6 9 -19 -4 -14 2 -22 27
-34 18 -9 55 -34 82 -57 26 -22 54 -40 61 -40 7 0 21 -12 31 -26 10 -14 25
-32 32 -39 6 -8 12 -18 12 -24 0 -6 9 -16 20 -23 11 -7 20 -19 20 -26 0 -7 8
-16 18 -19 22 -9 52 -42 52 -60 0 -7 5 -13 10 -13 6 0 10 -7 10 -15 0 -8 4
-15 9 -15 5 0 15 -16 22 -35 7 -19 17 -35 21 -35 4 0 8 -18 8 -40 0 -22 4 -40
9 -40 11 0 23 -31 52 -133 21 -73 21 -78 5 -96 -16 -18 -16 -20 4 -34 13 -9
18 -20 14 -32 -4 -10 -1 -20 6 -25 15 -9 23 -99 24 -285 1 -137 -5 -189 -28
-233 -9 -17 -16 -41 -16 -54 -1 -61 -63 -191 -127 -266 -42 -49 -149 -104
-261 -132 -23 -6 -48 -20 -55 -30 -6 -11 -20 -20 -30 -20 -16 0 -55 -17 -67
-30 -3 -3 -24 -14 -47 -25 -24 -11 -43 -23 -43 -27 0 -5 -6 -8 -12 -8 -12 0
-31 -17 -112 -100 -19 -19 -55 -53 -80 -75 -25 -22 -46 -46 -46 -52 0 -7 -4
-13 -10 -13 -5 0 -10 -16 -10 -35 0 -35 26 -69 62 -81 10 -3 18 -9 18 -13 0
-11 -42 -47 -63 -54 -9 -4 -16 -12 -15 -18 2 -7 -8 -15 -22 -19 -14 -3 -20 -9
-14 -12 15 -10 74 22 97 54 21 29 50 37 63 17 8 -13 100 -7 130 9 62 32 171
68 237 77 26 4 50 11 53 16 3 5 16 9 30 9 13 0 24 4 24 8 0 4 15 16 33 27 17
10 37 24 43 29 6 6 33 29 60 51 26 22 66 57 88 77 23 21 48 38 58 38 9 0 42
26 73 57 69 69 157 240 160 313 3 41 14 80 57 191 7 20 19 34 26 31 9 -3 9 6
-3 36 -14 34 -15 66 -8 228 5 104 6 191 2 194 -6 5 -21 107 -24 165 -2 41 -15
85 -25 85 -5 0 -13 19 -18 43 -5 23 -14 41 -20 40 -18 -4 -31 29 -48 119 -19
103 -42 178 -56 178 -6 0 -8 -11 -4 -26 5 -17 3 -23 -4 -19 -5 3 -10 13 -10
21 0 8 -7 14 -16 14 -11 0 -14 -5 -10 -16 3 -9 9 -27 13 -42 5 -21 3 -24 -11
-19 -13 5 -16 3 -14 -11 2 -9 10 -16 16 -14 7 1 12 -5 12 -13 0 -24 18 -17 22
8 6 40 86 -214 100 -318 5 -36 5 -38 -5 -12 -14 36 -27 34 -27 -4 0 -20 -4
-29 -12 -27 -8 3 -14 27 -16 61 -2 40 -7 57 -17 57 -20 0 -30 58 -14 86 10 20
10 27 -4 42 -10 10 -17 28 -17 39 0 11 -8 27 -18 34 -10 8 -36 58 -57 112 -24
61 -43 96 -51 93 -14 -6 -46 27 -68 72 -10 18 -42 59 -72 90 -30 31 -70 72
-87 90 -63 67 -322 241 -359 242 -7 1 -26 12 -43 26 l-30 26 30 -7 c17 -4 37
-13 46 -21 11 -10 18 -11 26 -3 8 8 24 7 59 -5 59 -20 74 -20 48 -2 -15 11
-16 17 -7 27 18 18 62 2 73 -27 6 -14 14 -23 20 -19 11 7 102 -55 108 -75 3
-9 -7 -7 -32 8 -20 12 -48 22 -61 22 -13 0 -27 5 -30 10 -9 15 -35 12 -35 -4
0 -8 34 -33 77 -56 42 -22 90 -52 106 -66 16 -14 32 -22 36 -19 6 6 -7 18 -45
41 -17 10 -17 12 -2 28 16 15 17 15 27 -1 14 -25 25 -9 11 16 -20 38 9 23 59
-31 48 -52 79 -59 65 -15 -6 18 -2 16 18 -8 37 -44 53 -77 53 -107 1 -16 -1
-28 -3 -28 -19 0 -124 79 -118 89 2 3 -9 6 -25 7 -16 1 -29 -2 -29 -5 0 -12
65 -71 78 -71 11 0 85 -53 116 -82 8 -7 23 -20 35 -28 11 -8 21 -23 21 -33 0
-9 7 -20 15 -23 8 -4 15 -15 15 -25 0 -11 7 -22 15 -26 21 -7 31 3 17 19 -5 7
-26 43 -45 80 -19 36 -44 77 -56 89 -11 13 -21 29 -21 36 0 25 39 -10 60 -54
20 -43 56 -76 72 -67 5 3 4 12 -2 19 -7 8 -10 22 -8 32 6 27 -21 76 -37 69 -9
-3 -26 11 -45 39 -17 25 -35 45 -40 45 -6 0 -10 7 -10 14 0 8 -16 27 -35 42
-39 29 -45 45 -15 37 31 -8 24 19 -15 57 -19 18 -32 37 -29 42 10 16 -17 38
-46 38 -40 0 -101 81 -69 92 5 2 -15 22 -46 45 -46 33 -63 41 -89 37 -21 -3
-39 2 -56 15 -14 12 -19 21 -12 21 19 0 14 18 -9 31 -17 8 -23 8 -29 -2 -7
-10 -15 -9 -42 2 -50 20 -100 57 -86 62 13 5 6 8 -37 22 -17 5 -20 25 -4 25 6
0 22 -9 36 -20 14 -11 31 -20 38 -20 18 0 103 -39 110 -50 3 -6 15 -10 25 -10
10 0 22 -9 25 -20 3 -11 13 -20 21 -20 16 0 82 -35 149 -80 22 -15 50 -26 62
-25 24 1 45 15 24 15 -7 0 -24 14 -38 30 -13 17 -32 30 -40 30 -10 0 -14 6
-10 20 5 20 -5 25 -46 20 -10 -1 -29 6 -42 14 -13 9 -29 16 -36 16 -6 0 -20
12 -31 26 -15 19 -27 24 -44 20 -12 -3 -26 -2 -29 4 -3 5 -15 10 -26 10 -19 0
-67 19 -99 39 -8 5 -30 15 -47 21 -18 7 -30 16 -28 20 3 5 1 11 -5 15 -5 3
-10 1 -10 -4 0 -17 -30 -13 -37 5 -3 8 -11 13 -19 10 -7 -3 -18 2 -25 10 -8 9
-24 14 -39 12 -15 -2 -32 1 -38 8 -6 7 -34 15 -62 19 -34 5 -54 13 -61 26 -11
21 -35 25 -41 7 -2 -6 -10 -8 -17 -4 -8 6 -9 11 -1 21 8 9 5 14 -12 19 -37 9
-55 7 -68 -9z m-112 -92 c-21 -2 -57 -2 -80 0 -24 2 -7 4 37 4 44 0 63 -2 43
-4z m115 -10 c-7 -2 -21 -2 -30 0 -10 3 -4 5 12 5 17 0 24 -2 18 -5z m142 -18
l60 -14 -65 5 c-36 3 -69 10 -74 15 -14 12 8 11 79 -6z m-287 -2 c-52 -8 -32
-31 32 -38 51 -6 59 -9 49 -21 -6 -8 -23 -14 -37 -14 -14 0 -41 -5 -59 -12
-42 -15 -65 1 -45 32 14 23 7 47 -16 53 -10 3 10 5 43 4 33 0 48 -2 33 -4z
m139 -9 c-3 -3 -12 -4 -19 -1 -8 3 -5 6 6 6 11 1 17 -2 13 -5z m274 -19 c43
-18 16 -18 -31 0 -19 7 -28 14 -19 14 9 1 32 -6 50 -14z m-533 -4 c10 -6 10
-10 -3 -21 -8 -7 -15 -18 -15 -25 0 -14 -31 -25 -70 -25 -20 0 -22 2 -10 10 8
5 25 10 38 10 13 0 22 6 22 16 0 13 -10 15 -67 10 -68 -5 -68 -5 -15 5 30 5
61 13 70 19 21 12 33 12 50 1z m-478 -11 c-8 -5 -11 -12 -7 -17 4 -4 17 -2 27
5 11 7 29 12 40 12 17 0 19 -2 8 -14 -7 -7 -19 -11 -26 -9 -7 3 -18 1 -25 -5
-6 -5 -28 -13 -47 -17 -31 -7 -33 -6 -21 9 11 13 11 16 0 16 -18 0 1 17 26 23
33 8 41 7 25 -3z m1130 -20 c44 -24 33 -26 -16 -2 -28 13 -38 14 -41 5 -3 -7
-9 -13 -14 -13 -4 0 -6 7 -3 15 8 20 31 18 74 -5z m-1336 -11 c-3 -5 -10 -7
-15 -3 -5 3 -7 10 -3 15 3 5 10 7 15 3 5 -3 7 -10 3 -15z m537 -24 c0 -5 -13
-13 -28 -16 -15 -4 -34 -8 -42 -10 -7 -2 -16 2 -18 9 -3 7 5 12 21 12 13 0 28
5 31 11 8 12 36 8 36 -6z m-405 -4 c-3 -5 -16 -11 -28 -14 -22 -6 -22 -5 -4 8
22 17 40 20 32 6z m274 -9 c0 -13 -12 -22 -39 -30 -54 -17 -68 -15 -74 9 -6
24 19 37 76 38 29 1 37 -3 37 -17z m500 -7 c14 -1 25 -6 25 -11 0 -5 -6 -8
-13 -6 -10 2 -12 -3 -7 -18 6 -20 4 -21 -94 -18 -100 3 -135 17 -76 29 24 5
19 7 -23 8 -29 0 -62 -4 -73 -9 -25 -14 -57 1 -37 18 24 19 121 22 298 7z
m-336 -20 c-4 -8 -12 -15 -20 -15 -8 0 -14 7 -14 15 0 8 9 15 20 15 13 0 18
-5 14 -15z m-294 -15 c0 -5 -4 -10 -10 -10 -5 0 -10 5 -10 10 0 6 5 10 10 10
6 0 10 -4 10 -10z m220 0 c0 -5 -18 -10 -40 -10 -22 0 -40 5 -40 10 0 6 18 10
40 10 22 0 40 -4 40 -10z m-90 -9 c0 -5 -12 -11 -27 -14 -27 -6 -79 -45 -70
-53 2 -3 38 6 78 20 95 31 147 37 134 15 -4 -6 -14 -8 -22 -5 -8 3 -31 -3 -51
-13 -20 -10 -57 -24 -82 -31 -25 -7 -61 -20 -80 -31 -25 -12 -40 -15 -50 -8
-13 8 -12 12 4 24 11 8 26 15 34 15 22 0 8 24 -19 30 -16 4 -20 8 -11 14 7 4
22 4 33 1 14 -5 19 -3 15 3 -6 9 25 23 79 35 33 8 35 7 35 -2z m730 -12 c0 -5
-4 -9 -10 -9 -5 0 -10 7 -10 16 0 8 5 12 10 9 6 -3 10 -10 10 -16z m118 -20
c-2 -6 -7 -10 -11 -10 -4 1 -14 1 -22 1 -8 0 -15 5 -15 10 0 6 12 10 26 10 14
0 24 -5 22 -11z m-1048 -58 c0 -11 -39 -25 -47 -18 -3 3 -2 10 2 16 8 13 45
15 45 2z m820 -11 c0 -5 -4 -10 -10 -10 -5 0 -10 5 -10 10 0 6 5 10 10 10 6 0
10 -4 10 -10z m205 0 c3 -5 1 -10 -4 -10 -6 0 -11 5 -11 10 0 6 2 10 4 10 3 0
8 -4 11 -10z m130 -29 c39 -12 72 -26 73 -31 2 -6 12 -10 23 -10 34 0 109 -43
109 -62 0 -19 -34 -25 -45 -8 -3 6 -15 10 -25 10 -11 0 -35 11 -55 24 -42 29
-123 61 -131 53 -11 -10 7 -27 28 -27 17 0 19 -4 13 -27 -4 -16 -9 -30 -11
-32 -8 -8 -52 21 -72 48 -24 33 -19 96 7 88 9 -3 48 -15 86 -26z m-180 -2 c9
-13 -9 -17 -33 -8 -13 5 -21 13 -18 18 7 10 43 3 51 -10z m-1067 -13 c3 -12
-1 -17 -10 -14 -7 3 -15 13 -16 22 -3 12 1 17 10 14 7 -3 15 -13 16 -22z
m1442 -7 c0 -3 44 -35 98 -72 125 -86 132 -92 132 -107 0 -13 -20 -2 -121 70
-35 25 -75 50 -89 57 -14 6 -38 23 -55 37 l-30 25 32 -2 c18 -1 33 -5 33 -8z
m215 1 c3 -5 2 -10 -4 -10 -5 0 -13 5 -16 10 -3 6 -2 10 4 10 5 0 13 -4 16
-10z m-1795 -265 c0 -9 -111 -88 -116 -82 -3 3 18 24 46 46 47 37 70 49 70 36z
m-155 -131 c-21 -15 -37 -15 -36 1 0 10 42 25 51 18 3 -3 -4 -11 -15 -19z
m-865 -1264 c0 -5 -2 -10 -4 -10 -3 0 -8 5 -11 10 -3 6 -1 10 4 10 6 0 11 -4
11 -10z m2670 -629 c0 -5 -10 -11 -22 -13 -17 -2 -24 -11 -26 -32 -2 -16 -10
-40 -19 -52 -14 -22 -21 -23 -94 -21 -43 1 -79 5 -79 8 0 4 18 14 39 22 22 9
45 24 53 35 21 29 80 60 116 61 17 1 32 -3 32 -8z m-980 -511 c0 -5 -4 -10
-10 -10 -5 0 -10 5 -10 10 0 6 5 10 10 10 6 0 10 -4 10 -10z m20 -68 c0 -14
-11 -21 -26 -15 -21 8 -17 23 6 23 11 0 20 -4 20 -8z"/>
<path d="M4368 7323 c7 -3 16 -2 19 1 4 3 -2 6 -13 5 -11 0 -14 -3 -6 -6z"/>
<path d="M5175 6850 c3 -5 11 -10 16 -10 6 0 7 5 4 10 -3 6 -11 10 -16 10 -6
0 -7 -4 -4 -10z"/>
<path d="M3279 6172 c-11 -15 -16 -28 -11 -30 5 -1 7 -46 4 -102 -3 -70 -1
-100 6 -100 8 0 11 -46 10 -152 -1 -84 4 -218 11 -298 7 -89 9 -222 5 -347
l-6 -203 61 -2 c34 -1 71 -2 84 -2 16 -1 21 4 19 19 -1 11 -7 70 -13 130 -5
61 -12 126 -14 145 -2 19 -6 98 -10 175 -3 77 -8 152 -10 168 -6 35 12 35 68
0 52 -32 156 -110 180 -135 10 -10 24 -18 32 -18 8 0 15 -4 15 -10 0 -14 43
-13 75 2 18 8 25 19 25 39 0 23 -5 28 -27 31 -16 2 -28 9 -28 16 0 13 -23 29
-83 57 -18 9 -35 22 -39 30 -3 8 -13 15 -23 15 -9 0 -29 11 -43 24 -14 13 -53
43 -86 66 -34 24 -63 53 -66 64 -11 56 -18 127 -20 189 -2 60 0 67 17 67 22 0
78 -27 78 -38 0 -4 17 -16 38 -27 20 -11 44 -28 53 -37 9 -10 20 -18 23 -18 4
0 13 -6 20 -12 7 -7 27 -24 45 -38 19 -14 47 -37 65 -51 44 -36 75 -27 91 28
12 39 11 42 -13 55 -14 7 -36 23 -48 36 -13 12 -32 22 -42 22 -10 0 -29 11
-42 25 -13 14 -29 25 -37 25 -7 0 -13 4 -13 9 0 5 -8 12 -17 15 -10 3 -29 16
-43 28 -21 20 -63 50 -128 93 -8 6 -27 22 -41 36 -14 14 -43 29 -63 32 -32 5
-40 2 -59 -21z"/>
<path d="M4422 6182 l-23 -3 4 -267 c3 -147 5 -271 5 -277 0 -5 -1 -158 -1
-340 -2 -324 -2 -330 19 -351 26 -26 94 -37 94 -16 0 9 7 11 21 7 15 -5 22 -2
26 14 3 12 9 21 14 21 13 0 79 67 79 79 0 17 63 81 80 81 10 0 29 17 43 38 32
44 131 142 146 142 14 0 31 33 31 59 0 19 -10 26 -32 22 -5 0 -8 6 -8 14 0 8
-3 14 -8 12 -7 -2 -56 17 -122 47 -14 6 -30 17 -35 24 -6 7 -15 13 -20 12 -22
-5 -35 1 -35 15 0 8 -7 15 -14 15 -18 0 -66 61 -66 84 0 9 11 21 25 26 14 5
27 20 31 35 3 14 10 25 15 25 5 0 9 7 9 16 0 9 9 18 20 21 11 3 23 16 26 29 3
13 9 23 13 23 18 -3 51 15 51 28 0 8 12 25 28 39 18 17 23 27 15 31 -7 2 -13
13 -13 24 0 10 -6 19 -13 19 -7 0 -18 9 -25 20 -7 11 -23 20 -37 20 -14 0 -29
8 -35 20 -6 11 -17 20 -25 20 -8 0 -15 5 -15 10 0 6 -7 10 -16 10 -8 0 -33 18
-54 39 -22 22 -48 42 -60 46 -11 3 -20 10 -20 15 0 5 -12 20 -27 34 -26 24
-36 26 -91 18z m107 -155 c9 -8 32 -20 51 -27 19 -7 42 -19 50 -25 8 -7 26
-16 40 -20 30 -9 70 -44 70 -61 0 -6 -15 -23 -32 -37 -19 -14 -50 -58 -73
-103 -65 -129 -130 -181 -152 -121 -8 23 -5 385 3 399 8 12 26 10 43 -5z m69
-547 c18 -11 39 -20 47 -20 8 0 15 -4 15 -10 0 -5 7 -10 16 -10 9 0 27 -9 41
-20 14 -11 33 -20 42 -20 52 -1 69 -68 24 -97 -37 -24 -93 -84 -93 -98 0 -7
-11 -20 -25 -29 -14 -9 -25 -23 -25 -31 0 -16 -39 -47 -51 -40 -4 3 -17 -15
-29 -41 -18 -35 -27 -44 -44 -42 -20 3 -21 10 -28 163 -3 88 -7 167 -7 175 -9
122 37 169 117 120z"/>
<path d="M2229 5698 c-5 -9 -4 -88 0 -88 12 0 29 51 24 70 -4 17 -19 27 -24
18z"/>
<path d="M2704 5109 c-3 -6 -1 -16 5 -22 8 -8 11 -5 11 11 0 24 -5 28 -16 11z"/>
<path d="M2710 5061 c0 -5 5 -13 10 -16 6 -3 10 -2 10 4 0 5 -4 13 -10 16 -5
3 -10 2 -10 -4z"/>
<path d="M2400 4551 c0 -6 5 -13 10 -16 6 -3 10 1 10 9 0 9 -4 16 -10 16 -5 0
-10 -4 -10 -9z"/>
<path d="M6369 3342 c-28 -51 -56 -91 -116 -169 -80 -102 -78 -114 47 -235 55
-53 100 -99 100 -102 0 -11 -64 -111 -86 -136 -42 -45 -94 -120 -94 -134 0
-13 71 -66 90 -66 5 0 22 24 36 53 15 28 50 81 78 117 78 98 86 114 86 167 -1
47 -2 49 -84 121 -46 40 -89 84 -96 97 -15 29 -1 55 99 173 33 41 61 79 61 86
0 15 -47 51 -78 58 -18 5 -26 0 -43 -30z"/>
<path d="M1959 3358 l-35 -9 -3 -382 c-1 -210 -3 -395 -4 -412 -2 -30 -2 -30
57 -33 l59 -3 -7 118 c-10 179 -9 524 1 534 8 8 36 -26 131 -159 l32 -47 0
-222 0 -223 49 0 c32 0 51 5 54 14 3 7 1 101 -4 207 -12 226 -12 225 0 434 11
182 9 188 -64 183 l-40 -3 4 -112 c3 -114 -5 -139 -29 -92 -22 39 -152 219
-158 218 -4 -1 -23 -5 -43 -11z"/>
<path d="M2485 3356 c-37 -11 -40 -14 -38 -46 5 -91 2 -700 -3 -737 l-6 -41
56 -12 c31 -6 61 -10 66 -8 5 2 61 50 125 107 108 97 115 106 115 141 0 35 -7
45 -80 113 l-81 75 49 53 c69 77 82 99 82 139 0 29 -6 41 -32 60 -18 13 -70
57 -115 97 -45 40 -86 73 -90 72 -4 0 -26 -6 -48 -13z m169 -214 c17 -23 17
-24 -3 -46 -12 -12 -21 -25 -21 -29 0 -9 -73 -76 -83 -77 -7 0 -7 218 0 232 5
10 84 -50 107 -80z m10 -337 c14 -18 26 -38 26 -42 0 -8 -128 -133 -136 -133
-2 0 -4 63 -4 141 l0 140 44 -36 c25 -20 56 -51 70 -70z"/>
<path d="M3503 3355 l-32 -14 1 -313 c1 -172 -2 -357 -6 -410 l-9 -98 46 0
c82 0 78 -10 71 184 -4 114 -3 168 3 161 15 -14 107 -199 135 -269 30 -76 45
-86 93 -60 43 22 53 40 37 63 -14 20 -129 223 -154 270 -9 19 -15 37 -13 41 3
4 33 42 69 85 75 90 89 135 54 172 -12 13 -29 23 -39 23 -9 0 -19 8 -21 18 -6
21 -170 162 -189 162 -8 -1 -29 -7 -46 -15z m142 -185 c69 -69 69 -68 -16
-170 l-54 -64 -5 89 c-6 101 -1 205 9 205 4 0 33 -27 66 -60z"/>
<path d="M4382 3354 l-33 -14 1 -348 c1 -191 -2 -375 -5 -409 l-8 -63 62 0 61
0 0 68 c0 37 -5 73 -11 79 -7 7 -8 17 -1 29 5 11 7 33 5 51 -5 34 1 43 159
209 65 69 68 74 68 121 0 49 -2 52 -72 120 -40 38 -95 93 -121 121 -52 56 -56
58 -105 36z m142 -204 c31 -36 56 -71 56 -78 0 -15 -116 -139 -123 -132 -13
13 -11 283 2 278 4 -1 34 -32 65 -68z"/>
<path d="M5491 3362 l-43 -3 7 -62 c10 -85 10 -582 1 -689 l-8 -88 140 0 c156
0 152 -2 152 78 l0 34 -85 -7 -85 -7 -2 51 c-1 28 -3 63 -4 79 -6 64 -4 249 5
411 6 96 8 178 5 183 -10 16 -40 23 -83 20z"/>
<path d="M1553 3348 c-13 -17 -37 -154 -29 -167 4 -5 2 -12 -3 -15 -11 -7 -23
-62 -56 -246 -13 -74 -33 -178 -45 -230 -11 -52 -23 -107 -26 -121 -7 -32 13
-49 65 -56 45 -6 45 -6 57 125 5 62 9 75 28 82 24 10 122 40 130 40 7 0 15
-47 25 -143 5 -49 13 -93 18 -98 6 -6 27 -5 56 3 41 11 47 16 47 38 0 15 -3
30 -7 34 -10 9 -28 94 -131 621 l-27 140 -46 3 c-29 2 -49 -2 -56 -10z m76
-344 c6 -43 13 -95 17 -115 6 -34 5 -36 -34 -47 -64 -19 -65 -19 -58 46 11 88
37 246 44 257 7 12 17 -33 31 -141z"/>
<path d="M3963 3352 l-22 -3 -2 -367 c-1 -202 -2 -387 -3 -412 l-1 -45 150 0
150 0 3 52 3 53 -95 -7 -94 -6 -6 44 c-2 24 -4 87 -3 139 l2 95 71 -1 72 0 5
39 c9 64 4 68 -73 61 -49 -5 -69 -3 -75 6 -9 15 -7 202 2 239 6 23 7 24 89 17
l84 -6 0 54 0 55 -117 -2 c-65 -1 -128 -3 -140 -5z"/>
<path d="M4717 3321 c-7 -57 -1 -61 69 -61 l64 0 1 -87 c2 -121 -1 -298 -7
-490 l-6 -163 49 0 c26 0 53 4 60 8 9 6 10 50 5 177 -4 94 -6 257 -4 363 l3
192 65 0 c72 0 80 7 70 64 l-6 33 -179 0 -179 -1 -5 -35z"/>
<path d="M5184 3223 c9 -252 6 -607 -4 -648 -5 -22 -10 -43 -10 -47 0 -11 102
-10 119 1 10 7 12 23 7 67 -8 80 -9 557 0 672 l7 92 -62 0 -61 0 4 -137z"/>
<path d="M5847 3352 c-14 -3 -17 -10 -13 -28 5 -20 7 -565 2 -749 l-1 -50 150
0 150 0 3 53 3 52 -94 -6 -95 -7 -5 49 c-3 27 -5 90 -4 139 l2 90 71 -3 71 -3
6 42 c9 67 4 71 -73 63 -50 -5 -69 -3 -75 7 -10 14 -9 92 1 193 l6 69 83 -7
84 -7 6 45 c4 24 4 49 1 55 -6 9 -240 12 -279 3z"/>
<path d="M2838 2473 c-3 -21 -3 -43 -1 -50 4 -9 72 -12 268 -12 l263 -1 4 43
c3 23 3 45 1 49 -1 3 -122 7 -267 7 l-264 1 -4 -37z"/>
</g>
</svg>
